<mxfile host="Electron" modified="2024-01-31T08:11:27.462Z" agent="Mozilla/5.0 (Windows NT 10.0; Win64; x64) AppleWebKit/537.36 (KHTML, like Gecko) draw.io/22.0.3 Chrome/114.0.5735.289 Electron/25.8.4 Safari/537.36" etag="OulbzVgvvj8ciseWSVhE" version="22.0.3" type="device">
  <diagram id="C5RBs43oDa-KdzZeNtuy" name="Page-1">
    <mxGraphModel dx="1823" dy="866" grid="1" gridSize="10" guides="1" tooltips="1" connect="1" arrows="1" fold="1" page="1" pageScale="1" pageWidth="827" pageHeight="1169" math="0" shadow="0">
      <root>
        <mxCell id="WIyWlLk6GJQsqaUBKTNV-0" />
        <mxCell id="WIyWlLk6GJQsqaUBKTNV-1" parent="WIyWlLk6GJQsqaUBKTNV-0" />
        <mxCell id="ogNRVSU2NBQzMsf9HLzj-22" style="edgeStyle=orthogonalEdgeStyle;rounded=0;orthogonalLoop=1;jettySize=auto;html=1;" edge="1" parent="WIyWlLk6GJQsqaUBKTNV-1" source="ogNRVSU2NBQzMsf9HLzj-20" target="ogNRVSU2NBQzMsf9HLzj-21">
          <mxGeometry relative="1" as="geometry" />
        </mxCell>
        <mxCell id="ogNRVSU2NBQzMsf9HLzj-20" value="Contribuer" style="rounded=1;whiteSpace=wrap;html=1;arcSize=19;" vertex="1" parent="WIyWlLk6GJQsqaUBKTNV-1">
          <mxGeometry x="190" y="40" width="120" height="60" as="geometry" />
        </mxCell>
        <mxCell id="ogNRVSU2NBQzMsf9HLzj-62" style="edgeStyle=orthogonalEdgeStyle;rounded=0;orthogonalLoop=1;jettySize=auto;html=1;entryX=0.5;entryY=0;entryDx=0;entryDy=0;" edge="1" parent="WIyWlLk6GJQsqaUBKTNV-1" source="ogNRVSU2NBQzMsf9HLzj-21" target="ogNRVSU2NBQzMsf9HLzj-27">
          <mxGeometry relative="1" as="geometry" />
        </mxCell>
        <mxCell id="ogNRVSU2NBQzMsf9HLzj-21" value="" style="ellipse;whiteSpace=wrap;html=1;aspect=fixed;" vertex="1" parent="WIyWlLk6GJQsqaUBKTNV-1">
          <mxGeometry x="404" y="60" width="20" height="20" as="geometry" />
        </mxCell>
        <mxCell id="ogNRVSU2NBQzMsf9HLzj-34" value="" style="edgeStyle=orthogonalEdgeStyle;rounded=0;orthogonalLoop=1;jettySize=auto;html=1;" edge="1" parent="WIyWlLk6GJQsqaUBKTNV-1" source="ogNRVSU2NBQzMsf9HLzj-27" target="ogNRVSU2NBQzMsf9HLzj-33">
          <mxGeometry relative="1" as="geometry" />
        </mxCell>
        <mxCell id="ogNRVSU2NBQzMsf9HLzj-27" value="tutoriel&amp;nbsp;" style="rounded=1;whiteSpace=wrap;html=1;" vertex="1" parent="WIyWlLk6GJQsqaUBKTNV-1">
          <mxGeometry x="353" y="130" width="120" height="60" as="geometry" />
        </mxCell>
        <mxCell id="ogNRVSU2NBQzMsf9HLzj-32" value="ajouter&amp;nbsp;&lt;br&gt;questionnaire" style="text;html=1;align=center;verticalAlign=middle;resizable=0;points=[];autosize=1;strokeColor=none;fillColor=none;" vertex="1" parent="WIyWlLk6GJQsqaUBKTNV-1">
          <mxGeometry x="460" y="80" width="100" height="40" as="geometry" />
        </mxCell>
        <mxCell id="ogNRVSU2NBQzMsf9HLzj-36" value="" style="edgeStyle=orthogonalEdgeStyle;rounded=0;orthogonalLoop=1;jettySize=auto;html=1;" edge="1" parent="WIyWlLk6GJQsqaUBKTNV-1" source="ogNRVSU2NBQzMsf9HLzj-33" target="ogNRVSU2NBQzMsf9HLzj-35">
          <mxGeometry relative="1" as="geometry" />
        </mxCell>
        <mxCell id="ogNRVSU2NBQzMsf9HLzj-46" value="" style="edgeStyle=orthogonalEdgeStyle;rounded=0;orthogonalLoop=1;jettySize=auto;html=1;" edge="1" parent="WIyWlLk6GJQsqaUBKTNV-1" source="ogNRVSU2NBQzMsf9HLzj-33" target="ogNRVSU2NBQzMsf9HLzj-45">
          <mxGeometry relative="1" as="geometry" />
        </mxCell>
        <mxCell id="ogNRVSU2NBQzMsf9HLzj-33" value="thématique&lt;br&gt;/généraliste" style="rhombus;whiteSpace=wrap;html=1;rounded=1;" vertex="1" parent="WIyWlLk6GJQsqaUBKTNV-1">
          <mxGeometry x="373" y="260" width="80" height="80" as="geometry" />
        </mxCell>
        <mxCell id="ogNRVSU2NBQzMsf9HLzj-47" style="edgeStyle=orthogonalEdgeStyle;rounded=0;orthogonalLoop=1;jettySize=auto;html=1;entryX=0;entryY=0.5;entryDx=0;entryDy=0;" edge="1" parent="WIyWlLk6GJQsqaUBKTNV-1" source="ogNRVSU2NBQzMsf9HLzj-35" target="ogNRVSU2NBQzMsf9HLzj-45">
          <mxGeometry relative="1" as="geometry">
            <Array as="points">
              <mxPoint x="243" y="460" />
            </Array>
          </mxGeometry>
        </mxCell>
        <mxCell id="ogNRVSU2NBQzMsf9HLzj-35" value="choisir/définir&amp;nbsp;&lt;br&gt;thématique" style="whiteSpace=wrap;html=1;rounded=1;" vertex="1" parent="WIyWlLk6GJQsqaUBKTNV-1">
          <mxGeometry x="183" y="350" width="120" height="60" as="geometry" />
        </mxCell>
        <mxCell id="ogNRVSU2NBQzMsf9HLzj-39" value="thématique" style="text;html=1;align=center;verticalAlign=middle;resizable=0;points=[];autosize=1;strokeColor=none;fillColor=none;" vertex="1" parent="WIyWlLk6GJQsqaUBKTNV-1">
          <mxGeometry x="258" y="270" width="80" height="30" as="geometry" />
        </mxCell>
        <mxCell id="ogNRVSU2NBQzMsf9HLzj-40" value="généraliste" style="text;html=1;align=center;verticalAlign=middle;resizable=0;points=[];autosize=1;strokeColor=none;fillColor=none;" vertex="1" parent="WIyWlLk6GJQsqaUBKTNV-1">
          <mxGeometry x="423" y="360" width="80" height="30" as="geometry" />
        </mxCell>
        <mxCell id="ogNRVSU2NBQzMsf9HLzj-49" value="" style="edgeStyle=orthogonalEdgeStyle;rounded=0;orthogonalLoop=1;jettySize=auto;html=1;" edge="1" parent="WIyWlLk6GJQsqaUBKTNV-1" source="ogNRVSU2NBQzMsf9HLzj-45" target="ogNRVSU2NBQzMsf9HLzj-48">
          <mxGeometry relative="1" as="geometry" />
        </mxCell>
        <mxCell id="ogNRVSU2NBQzMsf9HLzj-45" value="" style="rhombus;whiteSpace=wrap;html=1;rounded=1;" vertex="1" parent="WIyWlLk6GJQsqaUBKTNV-1">
          <mxGeometry x="373" y="420" width="80" height="80" as="geometry" />
        </mxCell>
        <mxCell id="ogNRVSU2NBQzMsf9HLzj-64" style="edgeStyle=orthogonalEdgeStyle;rounded=0;orthogonalLoop=1;jettySize=auto;html=1;entryX=0.5;entryY=0;entryDx=0;entryDy=0;" edge="1" parent="WIyWlLk6GJQsqaUBKTNV-1" source="ogNRVSU2NBQzMsf9HLzj-48" target="ogNRVSU2NBQzMsf9HLzj-63">
          <mxGeometry relative="1" as="geometry" />
        </mxCell>
        <mxCell id="ogNRVSU2NBQzMsf9HLzj-48" value="téléverser fichier" style="whiteSpace=wrap;html=1;rounded=1;" vertex="1" parent="WIyWlLk6GJQsqaUBKTNV-1">
          <mxGeometry x="353" y="590" width="120" height="60" as="geometry" />
        </mxCell>
        <mxCell id="ogNRVSU2NBQzMsf9HLzj-63" value="" style="ellipse;shape=doubleEllipse;whiteSpace=wrap;html=1;aspect=fixed;" vertex="1" parent="WIyWlLk6GJQsqaUBKTNV-1">
          <mxGeometry x="404" y="710" width="20" height="20" as="geometry" />
        </mxCell>
      </root>
    </mxGraphModel>
  </diagram>
</mxfile>
